<?xml version="1.0" encoding="utf-8"?>
<!-- Generator: Adobe Illustrator 21.0.0, SVG Export Plug-In . SVG Version: 6.00 Build 0)  -->
<svg version="1.1" id="Capa_1" xmlns="http://www.w3.org/2000/svg" xmlns:xlink="http://www.w3.org/1999/xlink" x="0px" y="0px"
	 viewBox="0 0 512 512" style="enable-background:new 0 0 512 512;" xml:space="preserve">
<style type="text/css">
	.st0{fill:#D8D8D8;}
</style>
<g>
	<g>
		<g>
			<path class="st0" d="M133,506.6v-11.3h17.4c2.4,0,4.5-1.7,4.9-4.1c3.8-20.6,18.5-37.5,38.3-44.3c2-0.7,3.4-2.6,3.4-4.7v-26.6
				c0-2.8-2.2-5-5-5H32c-14.9,0-27-12.1-27-27V138.3c0-14.9,12.1-27,27-27h10.7c2.8,0,5-2.2,5-5V63.6c0-3.1,2.5-5.7,5.7-5.7h149.3
				c3.1,0,5.7,2.5,5.7,5.7v42.7c0,2.8,2.2,5,5,5H258c2.4,0,4.5-1.7,4.9-4.1C273.1,48.5,323.8,5.7,383.3,5.4h0.7
				c32.7,0,63.5,12.7,86.7,35.8S506.8,95,507,127.7c0,3.5,0,6.7-0.5,9.9c-0.2,1,0,2.1,0.5,3v243.1c0,14.9-12.1,27-27,27H320
				c-2.8,0-5,2.2-5,5v26.6c0,2.1,1.4,4,3.4,4.7c19.8,6.8,34.5,23.7,38.3,44.3c0.4,2.4,2.5,4.1,4.9,4.1H379v11.3H133V506.6z
				 M224,453.3c-40.1,0-52.5,22.3-56.4,35.6c-0.4,1.5-0.1,3.1,0.8,4.4s2.4,2,4,2h167.3c1.6,0,3.1-0.7,4-2s1.2-2.9,0.8-4.4
				c-3.7-12.7-15.3-33.7-51.4-35.5V442h5.7c2.8,0,5-2.2,5-5v-21.3c0-2.8-2.2-5-5-5h-85.3c-2.8,0-5,2.2-5,5V437c0,2.8,2.2,5,5,5H251
				v11.3H224z M21.3,357.3c-2.8,0-5,2.2-5,5v21.3c0,8.6,7,15.7,15.7,15.7h448c8.6,0,15.7-7,15.7-15.7v-21.3c0-2.8-2.2-5-5-5H21.3z
				 M32,122.6c-8.6,0-15.7,7-15.7,15.7V341c0,2.8,2.2,5,5,5h469.3c2.8,0,5-2.2,5-5V198.2c0-2.2-1.4-4.2-3.6-4.8
				c-0.5-0.1-1-0.2-1.4-0.2c-1.6,0-3.2,0.8-4.2,2.2c-22.8,34.4-61.1,55-102.4,55h0c-67.7,0-122.9-55.1-123-122.9c0-2.8-2.2-5-5-5
				h-42.7c-2.8,0-5,2.2-5,5v42.7c0,3.1-2.5,5.7-5.7,5.7h-21.3c-2.8,0-5,2.2-5,5v32c0,1.3-0.5,2.6-1.3,3.6c-1.1,1.3-2.7,2-4.4,2
				c-0.9,0-2.3-0.2-3.6-1.3L118.8,177c-0.9-0.7-2-1.2-3.2-1.2H53.3c-3.1,0-5.7-2.5-5.7-5.7v-42.7c0-2.8-2.2-5-5-5H32V122.6z M384,16
				c-61.6,0-111.7,50.1-111.7,111.7S322.4,239.4,384,239.4s111.7-50.1,111.7-111.7S445.6,16,384,16z M64,69.3c-2.8,0-5,2.2-5,5v85.3
				c0,2.8,2.2,5,5,5h55.5c1.3,0,2.6,0.5,3.6,1.3l33.7,28c0.9,0.8,2.1,1.2,3.2,1.2c0.7,0,1.4-0.2,2.1-0.5c1.8-0.8,2.9-2.6,2.9-4.5
				v-19.8c0-3.1,2.5-5.7,5.7-5.7H192c2.8,0,5-2.2,5-5V74.3c0-2.8-2.2-5-5-5H64z"/>
			<path class="st0" d="M394.7,42.3h-21.3v21.3H352c-5.9,0-10.7,4.8-10.7,10.7v53.3c0,5.9,4.8,10.7,10.7,10.7h53.3v32h-64v21.3h32
				V213h21.3v-21.3H416c5.9,0,10.7-4.8,10.7-10.7v-53.3c0-5.9-4.8-10.7-10.7-10.7h-53.3V85h64V63.6h-32V42.3z"/>
			<path class="st0" d="M378.3,208v-16.3c0-2.8-2.2-5-5-5h-27v-11.3h59c2.8,0,5-2.2,5-5v-32c0-2.8-2.2-5-5-5H352
				c-3.1,0-5.7-2.5-5.7-5.7V74.3c0-3.1,2.5-5.7,5.7-5.7h21.3c2.8,0,5-2.2,5-5V47.3h11.3v16.3c0,2.8,2.2,5,5,5h27V80h-59
				c-2.8,0-5,2.2-5,5v32c0,2.8,2.2,5,5,5H416c3.1,0,5.7,2.5,5.7,5.7V181c0,3.1-2.5,5.7-5.7,5.7h-21.3c-2.8,0-5,2.2-5,5V208H378.3z"
				/>
			<rect x="42.7" y="255.6" class="st0" width="170.7" height="21.3"/>
			<rect x="47.7" y="260.6" class="st0" width="160.7" height="11.3"/>
			<rect x="42.7" y="298.3" class="st0" width="170.7" height="21.3"/>
			<rect x="47.7" y="303.3" class="st0" width="160.7" height="11.3"/>
			<rect x="85.3" y="106.3" class="st0" width="21.3" height="21.3"/>
			<rect x="90.3" y="111.3" class="st0" width="11.3" height="11.3"/>
			<rect x="117.3" y="106.3" class="st0" width="21.3" height="21.3"/>
			<rect x="122.3" y="111.3" class="st0" width="11.3" height="11.3"/>
			<rect x="149.3" y="106.3" class="st0" width="21.3" height="21.3"/>
			<rect x="154.3" y="111.3" class="st0" width="11.3" height="11.3"/>
			<path class="st0" d="M448,298.3h-32v21.3h42.7c5.9,0,10.7-4.8,10.7-10.7v-42.7H448V298.3z"/>
			<path class="st0" d="M421,314.6v-11.3h27c2.8,0,5-2.2,5-5v-27h11.3V309c0,3.1-2.5,5.7-5.7,5.7H421V314.6z"/>
		</g>
	</g>
</g>
</svg>
