<?xml version="1.0" encoding="utf-8"?>
<!-- Generator: Adobe Illustrator 21.0.0, SVG Export Plug-In . SVG Version: 6.00 Build 0)  -->
<svg version="1.1" id="Capa_1" xmlns="http://www.w3.org/2000/svg" xmlns:xlink="http://www.w3.org/1999/xlink" x="0px" y="0px"
	 viewBox="0 0 459.8 459.8" style="enable-background:new 0 0 459.8 459.8;" xml:space="preserve">
<style type="text/css">
	.st0{fill:#D8D8D8;}
</style>
<path class="st0" d="M458.6,213.6l-53.1-53.1c1.5-4.2,4.3-13.4,5.4-24.4c1.9-18.3-1.8-33.4-10.6-44.3c0.9-2,1.3-4.1,1.4-6.2
	l12.6-3.2l1.1,6.2c0.3,2,2,3.3,3.9,3.3c0.2,0,0.4,0,0.7-0.1l28.5-4.8c2.2-0.4,3.6-2.4,3.3-4.6l-3.3-19.7c-0.2-1-0.8-2-1.6-2.6
	c-0.9-0.6-1.9-0.9-3-0.7l-28.5,4.8c-1,0.2-2,0.8-2.6,1.6s-0.9,1.9-0.7,3l0.9,5.6l-12.9,3.2c-1.3-2.8-3.5-5.2-6.5-7
	c-5.7-3.3-12.9-3-18.2,0.9c-4.7,3.5-6.9,8.8-6.7,14l-9,2.3l2,7.8l9.3-2.3c0.7,1.2,1.6,2.4,2.6,3.4c1.4,1.4,2.9,2.4,4.6,3.2
	c3,6.5-0.1,19.6-3.7,29.2L321,76c-0.8-0.8-1.8-1.2-2.8-1.2s-2.1,0.4-2.8,1.2L194.2,197.2l-15.7-15.7c-0.8-0.8-1.8-1.2-2.8-1.2
	s-2.1,0.4-2.8,1.2l-4.5,4.5l-4.3-4.3l13.4-13.4c1.6-1.6,1.6-4.1,0-5.7l-12.8-12.8c-1.6-1.6-4.1-1.6-5.7,0l-32.4,32.4
	c-1.6,1.6-1.6,4.1,0,5.7l12.8,12.8c0.8,0.8,1.8,1.2,2.8,1.2s2-0.4,2.8-1.2l13.4-13.4l4.3,4.3l-4.5,4.5c-1.6,1.6-1.6,4.1,0,5.7
	l7.4,7.4l-24.3,24.3l-2.9-2.9c-0.8-0.8-1.9-1.2-3.1-1.2l-16.7,1c-1,0.1-1.9,0.5-2.6,1.2l-67.5,67.5c-0.7,0.7-1.1,1.6-1.2,2.6
	l-1,16.7c-0.1,1.1,0.4,2.3,1.2,3.1l3.5,3.5l-19,19c-1.1,1.1-1.6,2.8-1,4.2c1.4,3.7,0.4,7.8-2.3,10.6c-2.7,2.7-6.6,3.6-10.2,2.4
	c-1.8-0.6-3.8,0.2-4.8,1.9l-9.2,17c-0.8,1.6-0.6,3.5,0.7,4.7l2.4,2.4l-6.4,6.4c-1.6,1.6-1.6,4.1,0,5.7l0,0c1.6,1.6,4.1,1.6,5.7,0
	l6.4-6.4l3.5,3.5c0.8,0.8,1.8,1.2,2.8,1.2s2-0.4,2.8-1.2L72.4,346l3.4,3.4c0.8,0.8,1.9,1.2,3,1.2c0,0,0.1,0,0.1,0l16.7-1
	c1-0.1,1.9-0.5,2.6-1.2l67.5-67.5c0.7-0.7,1.1-1.6,1.2-2.6l1-16.7c0.1-1.1-0.4-2.3-1.2-3.1l-2.9-2.9l24.3-24.3l7.4,7.4
	c0.8,0.8,1.8,1.2,2.8,1.2s2.1-0.4,2.8-1.2l14.6-14.6c1.6-1.6,1.6-4.1,0-5.7l-15.7-15.7l1.7-1.7L336.3,336c0.8,0.8,1.8,1.2,2.8,1.2
	s2.1-0.4,2.8-1.2l116.7-116.7C460.2,217.7,460.2,215.2,458.6,213.6z M441.1,68.2l2,11.8l-20.6,3.5l-2-11.8L441.1,68.2z M142.2,192.2
	l-7.2-7.2l26.8-26.8l7.2,7.2L142.2,192.2z M19.5,387.7l-6.6-6.6l6.4-11.7c5.5,0.7,11.1-1.1,15.1-5.1c4.3-4.3,6.1-10.5,4.9-16.4
	l17.5-17.5l10,10L19.5,387.7z M158.9,276.5l-65.3,65.3l-13.3,0.8l-25.7-25.7l0.8-13.3l65.3-65.3l13.3-0.8l25.7,25.7L158.9,276.5z
	 M158,250.1l-11.1-11.1l24.3-24.3l11.1,11.1L158,250.1z M198.2,230.4l-31.5-31.5l9-9l31.5,31.5L198.2,230.4z M379.1,79.1
	c1.7-1.7,3.9-2.5,6.1-2.5s4.4,0.8,6.1,2.5c3.3,3.3,3.3,8.8,0,12.1c-3.3,3.3-8.8,3.3-12.1,0C375.8,87.9,375.8,82.4,379.1,79.1z
	 M385,122.2c2.2-8.3,2.8-15.1,1.8-20.5c3-0.3,5.9-1.4,8.4-3.3c13,17.7,7.4,44.1,3.9,55.8l-18.6-18.6
	C381.7,132.7,383.5,127.8,385,122.2z M406.7,215.9l-68.1,68.1l-37.8-37.8l68.1-68.1L406.7,215.9z M322.4,279.1l-4.3,4.3l-16.6-16.6
	l4.3-4.3L322.4,279.1z M328.1,284.8l7.7,7.7c0.8,0.8,1.8,1.2,2.8,1.2s2.1-0.4,2.8-1.2l73.8-73.8c1.6-1.6,1.6-4.1,0-5.7l-7.7-7.7
	l4.3-4.3l12.8,12.8l-88,88l-12.8-12.8L328.1,284.8z M401.8,199.7l-16.6-16.6l4.3-4.3l16.6,16.6L401.8,199.7z M379.5,177.4l-7.7-7.7
	c-0.8-0.8-1.8-1.2-2.8-1.2s-2.1,0.4-2.8,1.2l-73.8,73.8c-1.6,1.6-1.6,4.1,0,5.7l7.7,7.7l-4.3,4.3l-29.1-29.1l4.3-4.3l7.7,7.7
	c0.8,0.8,1.8,1.2,2.8,1.2s2.1-0.4,2.8-1.2l73.8-73.8c0.8-0.8,1.2-1.8,1.2-2.8s-0.4-2.1-1.2-2.8l-7.7-7.7l4.3-4.3l29.1,29.1
	L379.5,177.4z M349.7,158.9L281.6,227l-37.8-37.8l68.1-68.1L349.7,158.9z M265.4,222.1l-4.3,4.3l-16.6-16.6l4.3-4.3L265.4,222.1z
	 M344.8,142.7l-16.6-16.6l4.3-4.3l16.6,16.6L344.8,142.7z M322.5,120.4l-7.7-7.7c-1.6-1.6-4.1-1.6-5.7,0l-73.8,73.8
	c-1.6,1.6-1.6,4.1,0,5.7l7.7,7.7l-4.3,4.3L218.7,184l88-88l20.1,20.1L322.5,120.4z M339.1,327.5L207.2,195.5l5.9-5.9l120.6,120.6
	c0.8,0.8,1.8,1.2,2.8,1.2s2.1-0.4,2.8-1.2l93.6-93.6c1.6-1.6,1.6-4.1,0-5.7L312.4,90.4l5.9-5.9l131.9,131.9L339.1,327.5z"/>
</svg>
